# xmcd
# Track frame offsets:
# 182
# 13555
# 30370
# 44330
# 54477
# 72972
# 86050
# 105022
# 117427
# 131547
# 143502
# 157287
#
# Disc length: 2268 seconds
# Revision: 0
# Processed by: cddbd v1.4PL0 Copyright (c) Steve Scherf et al.
# Submitted via: VisiTrax 2.9.5.180 - For more info visit www.synapsa.com
#
DISCID=9608da0c
DTITLE=Charlie Rich - Behind closed doors Live in concert
DYEAR=1900
DGENRE=
TTITLE0=Behind closed doors
TTITLE1=Finally
TTITLE2=Midnite blue
TTITLE3=Before the next teardrop falls
TTITLE4=Let's take it nice and easy
TTITLE5=San Antonio stroll
TTITLE6=Delta dawn
TTITLE7=she
TTITLE8=A sunday kind of woman
TTITLE9=Fourteen karat mind
TTITLE10=Since I fell for you
TTITLE11=I take it on home
EXTD=
EXTT0=
EXTT1=
EXTT2=
EXTT3=
EXTT4=
EXTT5=
EXTT6=
EXTT7=
EXTT8=
EXTT9=
EXTT10=
EXTT11=
PLAYORDER=
